<?xml version="1.0" encoding="utf-8"?>
<!-- Generator: Adobe Illustrator 27.2.0, SVG Export Plug-In . SVG Version: 6.00 Build 0)  -->
<svg version="1.0" xmlns="http://www.w3.org/2000/svg" xmlns:xlink="http://www.w3.org/1999/xlink" x="0px" y="0px"
	 viewBox="0 0 770 441" style="enable-background:new 0 0 770 441;" xml:space="preserve">
<style type="text/css">
	.st0{fill:#FFFFFF;}
	.st1{fill:none;stroke:#FFFFFF;stroke-width:3;stroke-miterlimit:10;}
	.st2{fill:none;stroke:#FFFFFF;stroke-miterlimit:10;}
</style>
<g id="Слой_1">
</g>
<g id="Слой_2">
	<path class="st0" d="M517.82,204H247.54c-20.88,0-39.68-12.65-47.54-32l0,0h364v0C556.78,191.25,538.38,204,517.82,204z"/>
	<path class="st0" d="M295.2,234h-36.43c-2.63,0-4.76-2.13-4.76-4.76V204h47v24.2C301,231.4,298.4,234,295.2,234z"/>
	<path class="st0" d="M504.8,234H470.2c-3.42,0-6.2-2.23-6.2-4.97v-22.15c0-2.74,2.77-4.97,6.2-4.97h34.61
		c3.42,0,6.2-10.77,6.2-8.02v35.14C511,231.77,508.23,234,504.8,234z"/>
	<path class="st0" d="M423.45,244h-74.2C321,240.68,326,240.68,310,221.56l-10.8-15.54l-5.2-12.6l36,1.4L477,185l-26,47.37
		C446.38,240.88,436.43,244,423.45,244z"/>
	<path class="st0" d="M254,73.22"/>
	<path class="st0" d="M625,136h-39.41c-36.07-9.42-69.81-21.56-118.98-28.49C451.66,133.21,415.4,161,378,161
		c-36.81,0-64.65-27.24-79.9-52.3c-47.96,7.66-85.22,20.07-112.27,27.3H126c14,23,14.1,35.78,44,36l433.64,0.42
		c22.13-0.25,28.44-15.1,34.36-36.42H625z"/>
	<path class="st0" d="M169.7,127.05l-38.96,3.88c-0.4,0.04-0.74-0.32-0.74-0.77v-8.41c0-0.42,0.29-0.77,0.66-0.78l39.65-0.97
		c0.42-0.01,0.74,0.41,0.68,0.89l-0.69,5.5C170.26,126.74,170.01,127.02,169.7,127.05z"/>
	<path class="st0" d="M170.04,115h-39.09c-0.53,0-0.96-0.43-0.96-0.96V97.96c0-0.53,0.43-0.96,0.96-0.96h39.09
		c0.53,0,0.96,0.43,0.96,0.96v16.09C171,114.57,170.57,115,170.04,115z"/>
	<path class="st0" d="M150,83c-6.32,5.62-7.71,6.45-7.98,7.66c-0.04,0.17,0.1,0.34,0.28,0.34l15.56,0c0.62,0,0.79-0.84,0.22-1.08
		L150,88"/>
	<path class="st0" d="M167,70c-10,6-13,14-13,14s10.52,3.96,13,2c47-37,119.36-60.83,105-57C242,37,167,70,167,70z"/>
	<path class="st0" d="M142,75c-16,16.78-10,16-10,16C12,77,0,82,0,82s60-18,95-15"/>
	<path class="st0" d="M633.91,130.4v-8.41c0-0.42-0.27-0.77-0.61-0.78l-36.62-0.97c-0.39-0.01-0.69,0.41-0.63,0.89l0.63,5.5"/>
	<path class="st0" d="M596.99,115.24h35.96c0.53,0,0.96-0.43,0.96-0.96V98.2c0-0.53-0.43-0.96-0.96-0.96h-35.96
		c-0.53,0-0.96,0.43-0.96,0.96v16.09C596.03,114.81,596.46,115.24,596.99,115.24z"/>
	<path class="st0" d="M615.43,83.24c5.84,5.62,7.12,6.45,7.37,7.66c0.04,0.17-0.09,0.34-0.25,0.34l-14.37,0
		c-0.57,0-0.73-0.84-0.2-1.08l7.46-1.92"/>
	<path class="st0" d="M502.73,29.24c27.71,8,97,41,97,41c9.24,6,12.01,14,12.01,14s-9.71,3.96-12.01,2
		C556.31,49.24,489.46,25.41,502.73,29.24"/>
	<path class="st0" d="M622.82,75.24c14.78,16.78,9.24,16,9.24,16c110.85-14,121.94-9,121.94-9s-55.43-18-87.76-15"/>
	<path class="st0" d="M438.16,100.84c-6.54-1.09-13.18-1.76-19.78-2.32c-11.62-0.98-25.72-2.61-37.37-2.52
		c-25.46,1.43-48.36,5.53-73.44,10.17c11.15,22.81,41.75,45.83,73.44,45.83c31.85,0,64.7-23.74,75.98-47.16
		c-1.09-0.21-3.61-1.18-4.7-1.4C447.54,102.92,442.9,101.63,438.16,100.84z"/>
	<path class="st0" d="M417.59,267h-65.17c-1.88,0-3.41-1.53-3.41-3.41v-7.17c0-1.88,1.53-3.41,3.41-3.41h65.17
		c1.88,0,3.41,1.53,3.41,3.41v7.17C421,265.47,419.47,267,417.59,267z"/>
	<path class="st0" d="M413.59,282h-57.17c-1.88,0-3.41-1.53-3.41-3.41v-4.17c0-1.88,1.53-3.41,3.41-3.41h57.17
		c1.88,0,3.41,1.53,3.41,3.41v4.17C417,280.47,415.47,282,413.59,282z"/>
	<path class="st0" d="M404.59,306h-40.17c-1.88,0-3.41-1.53-3.41-3.41v-13.17c0-1.88,1.53-3.41,3.41-3.41h40.17
		c1.88,0,3.41,1.53,3.41,3.41v13.17C408,304.47,406.47,306,404.59,306z"/>
	<path class="st0" d="M430.54,310h-92.09c-2.46,0-4.46,2-4.46,4.46v47.09c0,2.46,2,4.46,4.46,4.46h92.09c2.46,0,4.46-2,4.46-4.46
		v-47.09C435,312,433,310,430.54,310z M383.5,357c-10.77,0-19.5-8.73-19.5-19.5c0-10.77,8.73-19.5,19.5-19.5s19.5,8.73,19.5,19.5
		C403,348.27,394.27,357,383.5,357z"/>
	<circle class="st1" cx="383.5" cy="337.5" r="14.5"/>
	<circle class="st2" cx="383.5" cy="337.5" r="11"/>
	<g>
		<path class="st0" d="M298.61,256.5h-43.22c-1.04,0-1.89-0.85-1.89-1.89v-7.22c0-1.04,0.85-1.89,1.89-1.89h43.22
			c1.04,0,1.89,0.85,1.89,1.89v7.22C300.5,255.65,299.65,256.5,298.61,256.5z"/>
		<path class="st0" d="M254,246c-84.85,57.16-81.15,154.21-79.39,174.29c1.62-1.31,3.23-2.6,4.9-3.81l0.76-1.27
			c1.07-7.88,3.16-15.49,4.82-23.41c2.3-10.95,4.03-21.76,8-32.28c2.81-7.47,5.26-15.11,8.14-22.54c0.3-0.77,0.66-1.64,1.06-2.53
			c0.81-3.39,2.21-6.58,4.42-8.92L255,256L254,246z"/>
		<path class="st0" d="M257.39,289h36.72c1.41-0.63,2.84-1.18,4.31-1.63c0.78-1.44,1.25-2.93,1.58-4.45v-12.53
			c0-1.32-1.07-2.39-2.39-2.39h-38.04c-0.33,0.05-0.67,0.11-1,0.16c-0.27,0.04-0.54,0.09-0.81,0.13c-0.12,0.02-0.2,0.04-0.25,0.05
			c-0.25,0.14-0.51,0.22-0.78,0.29c-0.36,0.34-0.75,0.65-1.15,0.95c-0.17,0.13-0.35,0.25-0.52,0.37c0,0-0.01,0.01-0.02,0.02
			c-0.03,0.14-0.04,0.28-0.04,0.43v16.22C255,287.93,256.07,289,257.39,289z"/>
		<path class="st0" d="M255,270c-0.01,0.01-0.01,0.01-0.02,0.02c-50.31,74.69-57.76,133.61-58.82,146.39
			c3.38-4.44,7.21-8.39,11.39-11.95c0.83-3.63,1.85-7.22,3.06-10.77c0.27-1.7,0.67-3.38,1.3-5.01c0.14-0.35,0.31-0.71,0.51-1.08
			c1.4-9.15,5.22-17.77,9.81-25.87c5.91-10.42,12.43-20.96,20.01-30.24c8.27-10.14,17.92-19.1,28.57-26.69
			c8.33-5.94,17.07-14.02,27.09-17.23L255,270z"/>
	</g>
	<g>
		<path class="st0" d="M466.18,256.52h43.29c1.04,0,1.89-0.85,1.89-1.89v-7.22c0-1.04-0.85-1.89-1.89-1.89h-43.29
			c-1.04,0-1.89,0.85-1.89,1.89v7.22C464.28,255.67,465.13,256.52,466.18,256.52z"/>
		<path class="st0" d="M510.86,246.02c84.98,57.16,81.28,154.21,79.52,174.29c-1.62-1.31-3.24-2.6-4.91-3.81l-0.76-1.27
			c-1.08-7.88-3.17-15.49-4.83-23.41c-2.3-10.95-4.04-21.76-8.01-32.28c-2.82-7.47-5.27-15.11-8.15-22.54
			c-0.3-0.77-0.66-1.64-1.06-2.53c-0.81-3.39-2.22-6.58-4.43-8.92l-48.36-69.53L510.86,246.02z"/>
		<path class="st0" d="M507.46,289.02h-36.78c-1.41-0.63-2.85-1.18-4.31-1.63c-0.78-1.44-1.25-2.93-1.58-4.45v-12.53
			c0-1.32,1.07-2.39,2.4-2.39h38.1c0.33,0.05,0.67,0.11,1,0.16c0.27,0.04,0.54,0.09,0.81,0.13c0.12,0.02,0.2,0.04,0.25,0.05
			c0.25,0.14,0.51,0.22,0.78,0.29c0.36,0.34,0.76,0.65,1.15,0.95c0.17,0.13,0.35,0.25,0.52,0.37c0,0,0.01,0.01,0.02,0.02
			c0.03,0.14,0.04,0.28,0.04,0.43v16.22C509.86,287.95,508.78,289.02,507.46,289.02z"/>
		<path class="st0" d="M509.85,270.02c0.01,0.01,0.01,0.01,0.02,0.02c50.39,74.69,57.85,133.61,58.91,146.39
			c-3.39-4.44-7.22-8.39-11.41-11.95c-0.83-3.63-1.85-7.22-3.07-10.77c-0.27-1.7-0.67-3.38-1.3-5.01c-0.14-0.35-0.31-0.71-0.51-1.08
			c-1.4-9.15-5.23-17.77-9.83-25.87c-5.92-10.42-12.45-20.96-20.04-30.24c-8.29-10.14-17.95-19.1-28.61-26.69
			c-8.35-5.94-17.1-14.02-27.13-17.23L509.85,270.02z"/>
	</g>
</g>
</svg>
