<svg width="231" height="263" viewBox="0 0 231 263" fill="none" xmlns="http://www.w3.org/2000/svg">
<path d="M16.9738 260.646C14.7031 250.049 7.13514 242.181 7.13514 230.993C7.13514 214.717 2.44691 198.933 2.21581 182.756C1.93449 163.064 1.07173 141.53 8.63826 122.905C19.3996 96.415 42.1387 73.9672 63.9807 56.4936C83.6493 40.7588 103.147 27.4398 129.025 26.9777C136.676 26.8411 141.748 25.1419 145.969 31.3504C153.611 42.5875 139.957 49.8585 139.957 38.0462C139.957 10.4785 168.368 -6.0969 192.976 6.20721C205.118 12.2782 209.25 20.1707 215.113 31.897C218.943 39.5569 220.382 49.9725 228.505 54.034" stroke="#0D0902" stroke-width="3" stroke-linecap="round"/>
</svg>
